<?xml version="1.0" encoding="utf-8"?>
<!-- Uploaded to: SVG Repo, www.svgrepo.com, Generator: SVG Repo Mixer Tools -->
<svg fill="#000000" height="800px" width="800px" version="1.1" id="Money" xmlns="http://www.w3.org/2000/svg" xmlns:xlink="http://www.w3.org/1999/xlink" 
	 viewBox="0 0 128 128" xml:space="preserve">
<g id="_x34__5_">
	<path d="M17.6,41.9v53h102.3v-53H17.6z M37.5,87.6h-12v-12h2.4v9.6h9.6V87.6z M37.5,51.5h-9.6v9.6h-2.4v-12h12V51.5z M68.8,87.6
		c-10.6,0-19.3-8.6-19.3-19.3c0-10.6,8.6-19.3,19.3-19.3s19.3,8.6,19.3,19.3C88.1,79,79.4,87.6,68.8,87.6z M113.3,87.6h-12v-2.4h9.6
		v-9.6h2.4V87.6z M113.3,61.1h-2.4v-9.6h-9.6v-2.4h12V61.1z"/>
</g>
<path id="_x33__9_" d="M76.7,73c0-3.2-1.9-5.4-6-6.9c-3-1.1-4.3-1.8-4.3-3.2c0-1.2,1.1-2.2,3.3-2.2c2.3,0,3.9,0.6,4.8,1.1l1.2-4.2
	c-1-0.5-2.3-0.9-4-1.1v-3.4h-5.9v4c-2.9,1.1-4.6,3.4-4.6,6.2c0,3.3,2.5,5.5,6.3,6.8c2.8,1,3.9,1.8,3.9,3.2c0,1.5-1.3,2.5-3.6,2.5
	c-2.2,0-4.4-0.7-5.8-1.4l-1.1,4.3c1,0.6,2.9,1.1,4.9,1.3v3.3h5.9v-3.8C75.1,78.4,76.7,75.9,76.7,73z"/>
<polygon id="_x32__17_" points="115.1,37 12.8,37 12.8,89.4 15.2,89.4 15.2,39.5 115.1,39.5 "/>
<polygon id="_x31__6_" points="110.3,32.2 8,32.2 8,84.6 10.4,84.6 10.4,34.6 110.3,34.6 "/>
</svg>